<svg width="32" height="32" viewBox="0 0 32 32" fill="none" xmlns="http://www.w3.org/2000/svg">
<path d="M25.5353 7.58647L24.4135 6.46467C23.794 5.84511 22.7895 5.84511 22.1699 6.46467L16 12.6346L9.83008 6.46467C9.21052 5.84511 8.20603 5.84511 7.58647 6.46467L6.46467 7.58647C5.84511 8.20603 5.84511 9.21052 6.46467 9.83008L12.6346 16L6.46467 22.1699C5.84511 22.7895 5.84511 23.794 6.46467 24.4135L7.58647 25.5353C8.20603 26.1549 9.21052 26.1549 9.83008 25.5353L16 19.3654L22.1699 25.5353C22.7895 26.1549 23.794 26.1549 24.4135 25.5353L25.5353 24.4135C26.1549 23.794 26.1549 22.7895 25.5353 22.1699L19.3654 16L25.5353 9.83008C26.1549 9.21052 26.1549 8.20603 25.5353 7.58647Z" fill="white"/>
</svg>
