<svg width="32" height="32" viewBox="0 0 32 32" fill="none" xmlns="http://www.w3.org/2000/svg">
<g clip-path="url(#clip0_13_158)">
<path fill-rule="evenodd" clip-rule="evenodd" d="M32 0H0V32H32V0ZM11.1667 6C10.6144 6 10.1667 6.44772 10.1667 7V10.1667H7C6.44772 10.1667 6 10.6144 6 11.1667V12.5C6 13.0523 6.44772 13.5 7 13.5H10.1667V18.5H7C6.44772 18.5 6 18.9477 6 19.5V20.8333C6 21.3856 6.44772 21.8333 7 21.8333H10.1667V25C10.1667 25.5523 10.6144 26 11.1667 26H12.5C13.0523 26 13.5 25.5523 13.5 25V21.8333H18.5V25C18.5 25.5523 18.9477 26 19.5 26H20.8333C21.3856 26 21.8333 25.5523 21.8333 25V21.8333H25C25.5523 21.8333 26 21.3856 26 20.8333V19.5C26 18.9477 25.5523 18.5 25 18.5H21.8333V13.5H25C25.5523 13.5 26 13.0523 26 12.5V11.1667C26 10.6144 25.5523 10.1667 25 10.1667H21.8333V7C21.8333 6.44772 21.3856 6 20.8333 6H19.5C18.9477 6 18.5 6.44772 18.5 7V10.1667L13.5 10.1667V7C13.5 6.44772 13.0523 6 12.5 6H11.1667ZM18.5 18.5V13.5L13.5 13.5V18.5L18.5 18.5Z" fill="#32A7DB"/>
</g>
<defs>
<clipPath id="clip0_13_158">
<rect width="32" height="32" rx="4" fill="white"/>
</clipPath>
</defs>
</svg>
