<svg width="42" height="42" viewBox="0 0 42 42" fill="none" xmlns="http://www.w3.org/2000/svg">
<path d="M8 10.5C8 9.11929 9.11929 8 10.5 8H37C38.3807 8 39.5 9.11929 39.5 10.5V26.5C39.5 27.8807 38.3807 29 37 29H10.5C9.11929 29 8 27.8807 8 26.5V10.5Z" fill="#BA822D"/>
<path d="M0 8C0 6.61929 1.11929 5.5 2.5 5.5H13.5C14.8807 5.5 16 6.61929 16 8V8.5C16 9.88071 17.1193 11 18.5 11H39.5C40.8807 11 42 12.1193 42 13.5V34C42 35.3807 40.8807 36.5 39.5 36.5H2.5C1.11929 36.5 0 35.3807 0 34V8Z" fill="#E4C064"/>
</svg>
