<svg width="32" height="32" viewBox="0 0 32 32" fill="none" xmlns="http://www.w3.org/2000/svg">
<g clip-path="url(#clip0_18_203)">
<path fill-rule="evenodd" clip-rule="evenodd" d="M32 0H0V32H32V0ZM26.4248 26.1172C26.5186 25.9238 26.5654 25.7129 26.5654 25.4844C26.5654 25.2559 26.5244 25.042 26.4424 24.8428C26.3662 24.6436 26.2344 24.4561 26.0469 24.2803C25.8535 24.1104 25.6016 23.9551 25.291 23.8145C24.9863 23.668 24.6055 23.5332 24.1484 23.4102C23.4395 23.2168 22.8154 22.9824 22.2764 22.707C21.7432 22.4316 21.3066 22.1299 20.9668 21.8018C20.627 21.4736 20.3691 21.1104 20.1934 20.7119C20.0234 20.3135 19.9385 19.8799 19.9385 19.4111C19.9385 18.8721 20.0527 18.3828 20.2812 17.9434C20.5098 17.5039 20.8262 17.1289 21.2305 16.8184C21.6348 16.5078 22.1123 16.2705 22.6631 16.1064C23.2139 15.9365 23.8115 15.8516 24.4561 15.8516C25.124 15.8516 25.7334 15.9482 26.2842 16.1416C26.8408 16.335 27.3184 16.6045 27.7168 16.9502C28.1152 17.3018 28.4258 17.7178 28.6484 18.1982C28.8711 18.6787 28.9824 19.2061 28.9824 19.7803H26.5742C26.5625 19.4932 26.5098 19.2295 26.416 18.9893C26.3281 18.749 26.1963 18.541 26.0205 18.3652C25.8389 18.1953 25.6133 18.0635 25.3438 17.9697C25.0801 17.8701 24.7695 17.8203 24.4121 17.8203C24.084 17.8203 23.791 17.8613 23.5332 17.9434C23.2812 18.0195 23.0674 18.1279 22.8916 18.2686C22.7158 18.415 22.5811 18.5879 22.4873 18.7871C22.3994 18.9805 22.3555 19.1914 22.3555 19.4199C22.3555 19.6602 22.4141 19.877 22.5312 20.0703C22.6543 20.2637 22.8301 20.4365 23.0586 20.5889C23.2871 20.7471 23.5625 20.8906 23.8848 21.0195C24.2129 21.1484 24.582 21.2686 24.9922 21.3799C25.4316 21.5029 25.8506 21.6523 26.249 21.8281C26.6475 22.0039 27.0137 22.2061 27.3477 22.4346C27.8516 22.8096 28.2529 23.2461 28.5518 23.7441C28.8506 24.2422 29 24.8164 29 25.4668C29 26.0293 28.8857 26.5303 28.6572 26.9697C28.4346 27.4033 28.124 27.7695 27.7256 28.0684C27.3271 28.373 26.8525 28.6045 26.3018 28.7627C25.751 28.915 25.1504 28.9912 24.5 28.9912C23.8613 28.9912 23.2285 28.8975 22.6016 28.71C21.9805 28.5166 21.4385 28.2354 20.9756 27.8662C20.5361 27.5029 20.1875 27.0752 19.9297 26.583C19.6777 26.0908 19.5518 25.5137 19.5518 24.8516H21.9775C21.9893 25.2383 22.0566 25.5693 22.1797 25.8447C22.3027 26.1201 22.4756 26.3457 22.6982 26.5215C22.915 26.6973 23.1758 26.8262 23.4805 26.9082C23.791 26.9902 24.1309 27.0312 24.5 27.0312C24.8281 27.0312 25.1182 26.9932 25.3701 26.917C25.6279 26.8408 25.8447 26.7354 26.0205 26.6006C26.1963 26.4658 26.3311 26.3047 26.4248 26.1172ZM15.1484 24.8955V16.0273H17.6182L17.627 24.8955C17.6211 25.5049 17.5039 26.0615 17.2754 26.5654C17.0527 27.0635 16.7451 27.4941 16.3525 27.8574C15.96 28.2207 15.4971 28.502 14.9639 28.7012C14.4365 28.9004 13.8682 29 13.2588 29C12.6143 29 12.0283 28.918 11.501 28.7539C10.9736 28.5898 10.5225 28.3438 10.1475 28.0156C9.7666 27.6934 9.4707 27.2861 9.25977 26.7939C9.04883 26.3018 8.94043 25.7246 8.93457 25.0625H11.4131C11.4131 25.3672 11.4424 25.6338 11.501 25.8623C11.5596 26.0908 11.6475 26.2842 11.7646 26.4424C11.917 26.6357 12.1162 26.7793 12.3623 26.873C12.6084 26.9668 12.9072 27.0137 13.2588 27.0137C13.54 27.0137 13.7979 26.9609 14.0322 26.8555C14.2666 26.7441 14.4658 26.5947 14.6299 26.4072C14.7939 26.2197 14.9199 25.9971 15.0078 25.7393C15.1016 25.4756 15.1484 25.1943 15.1484 24.8955Z" fill="#F5DE19"/>
</g>
<defs>
<clipPath id="clip0_18_203">
<rect width="32" height="32" rx="4" fill="white"/>
</clipPath>
</defs>
</svg>
