<svg width="32" height="32" viewBox="0 0 32 32" fill="none" xmlns="http://www.w3.org/2000/svg">
<rect width="32" height="32" rx="5.33333" fill="url(#paint0_linear_2_15)"/>
<path fill-rule="evenodd" clip-rule="evenodd" d="M29.3333 5.33334C29.3333 3.86058 28.1394 2.66667 26.6667 2.66667H5.33332C3.86056 2.66667 2.66666 3.86058 2.66666 5.33334V26.6667C2.66666 28.1394 3.86056 29.3333 5.33332 29.3333H26.6667C28.1394 29.3333 29.3333 28.1394 29.3333 26.6667V5.33334ZM15.2 22.1333C14.9054 22.1333 14.6667 21.8946 14.6667 21.6V13.3333C14.6667 13.0388 14.4279 12.8 14.1333 12.8H8.53332C8.23877 12.8 7.99999 13.0388 7.99999 13.3333V14.1947C7.99999 14.4892 8.23877 14.728 8.53332 14.728H11.4667C11.7612 14.728 12 14.9668 12 15.2613V16.9333C12 17.2279 11.7612 17.4667 11.4667 17.4667H8.53332C8.23877 17.4667 7.99999 17.7055 7.99999 18V18.9333C7.99999 19.2279 8.23877 19.4667 8.53332 19.4667H12.1333C12.4279 19.4667 12.6667 19.7055 12.6667 20V21.6C12.6667 21.8946 12.4279 22.1333 12.1333 22.1333H5.86666C5.57211 22.1333 5.33332 21.8946 5.33332 21.6V19.4667V12.728V10.6667C5.33332 10.3721 5.5721 10.1333 5.86666 10.1333H26.1333C26.4279 10.1333 26.6667 10.3721 26.6667 10.6667V16.8613C26.6667 17.1559 26.4279 17.3947 26.1333 17.3947H22.5333C22.2388 17.3947 22 17.6334 22 17.928V18.9333C22 19.2279 22.2388 19.4667 22.5333 19.4667H26.1333C26.4279 19.4667 26.6667 19.7055 26.6667 20V21.6C26.6667 21.8946 26.4279 22.1333 26.1333 22.1333H19.8667C19.5721 22.1333 19.3333 21.8946 19.3333 21.6V15.2613C19.3333 14.9668 19.5721 14.728 19.8667 14.728H23.4667C23.7612 14.728 24 14.4892 24 14.1947V13.3333C24 13.0388 23.7612 12.8 23.4667 12.8H17.8667C17.5721 12.8 17.3333 13.0388 17.3333 13.3333V21.6C17.3333 21.8946 17.0945 22.1333 16.8 22.1333H15.2Z" fill="#252B35"/>
<defs>
<linearGradient id="paint0_linear_2_15" x1="32" y1="0" x2="0" y2="32" gradientUnits="userSpaceOnUse">
<stop stop-color="#E88F28"/>
<stop offset="1" stop-color="#EF46E8"/>
</linearGradient>
</defs>
</svg>
