<svg width="32" height="32" viewBox="0 0 32 32" fill="none" xmlns="http://www.w3.org/2000/svg">
<g clip-path="url(#clip0_3_20)">
<path fill-rule="evenodd" clip-rule="evenodd" d="M16 32C24.8366 32 32 24.8366 32 16C32 7.16344 24.8366 0 16 0C7.16344 0 0 7.16344 0 16C0 24.8366 7.16344 32 16 32ZM11 16C11 14.6047 11.0825 13.2637 11.2339 12H20.7661C20.9175 13.2637 21 14.6047 21 16C21 17.3953 20.9175 18.7363 20.7661 20H11.2339C11.0825 18.7363 11 17.3953 11 16ZM2.57976 12C2.20256 13.2674 2 14.6101 2 16C2 17.3899 2.20255 18.7326 2.57976 20H9.22053C9.07657 18.7215 9 17.3812 9 16C9 14.6188 9.07657 13.2785 9.22053 12H2.57976ZM9.50883 10C10.057 6.90489 11.0165 4.29105 12.2325 2.51277C8.30229 3.60831 5.06904 6.37557 3.34726 10H9.50883ZM14.6654 2.69526C14.074 3.26706 13.45 4.19101 12.8826 5.48793C12.3309 6.7488 11.87 8.27722 11.5422 10H20.4578C20.13 8.27722 19.6691 6.7488 19.1174 5.48793C18.55 4.19101 17.926 3.26706 17.3346 2.69526C16.7528 2.13277 16.3048 2 16 2C15.6952 2 15.2472 2.13277 14.6654 2.69526ZM19.7675 2.51277C20.9835 4.29105 21.943 6.90489 22.4912 10H28.6527C26.931 6.37557 23.6977 3.60831 19.7675 2.51277ZM23 16C23 14.6188 22.9234 13.2785 22.7795 12H29.4202C29.7974 13.2674 30 14.6101 30 16C30 17.3899 29.7974 18.7326 29.4202 20H22.7795C22.9234 18.7215 23 17.3812 23 16ZM22.4912 22H28.6527C26.931 25.6244 23.6977 28.3917 19.7675 29.4872C20.9835 27.7089 21.943 25.0951 22.4912 22ZM17.3346 29.3047C17.926 28.7329 18.55 27.809 19.1174 26.5121C19.6691 25.2512 20.1301 23.7228 20.4578 22H11.5422C11.87 23.7228 12.3309 25.2512 12.8826 26.5121C13.45 27.809 14.074 28.7329 14.6654 29.3047C15.2472 29.8672 15.6952 30 16 30C16.3048 30 16.7528 29.8672 17.3346 29.3047ZM3.34726 22H9.50883C10.057 25.0951 11.0165 27.7089 12.2325 29.4872C8.30229 28.3917 5.06904 25.6244 3.34726 22Z" fill="#7EC1FF"/>
</g>
<defs>
<clipPath id="clip0_3_20">
<rect width="32" height="32" fill="white"/>
</clipPath>
</defs>
</svg>
